<?xml version="1.0" encoding="utf-8"?>
<!-- Generator: Adobe Illustrator 23.1.1, SVG Export Plug-In . SVG Version: 6.00 Build 0)  -->
<svg version="1.1" id="Layer_1" xmlns="http://www.w3.org/2000/svg" xmlns:xlink="http://www.w3.org/1999/xlink" x="0px" y="0px"
	 width="374px" height="374px" viewBox="0 0 374 374" style="enable-background:new 0 0 374 374;" xml:space="preserve">
<style type="text/css">
	.st0{clip-path:url(#SVGID_2_);}
	.st1{fill:#FFFFFF;}
</style>
<g>
	<defs>
		<rect id="SVGID_1_" width="374" height="374.4"/>
	</defs>
	<clipPath id="SVGID_2_">
		<use xlink:href="#SVGID_1_"  style="overflow:visible;"/>
	</clipPath>
	<g class="st0">
		<g>
			<g>
				<path class="st1" d="M375.2,375.2c-125.1,0-250.1,0-375.2,0C0,250.1,0,125.1,0,0c125.1,0,250.1,0,375.2,0
					C375.2,125.1,375.2,250.1,375.2,375.2z M169.4,104.8c-1.3,0.4-2.7,0.6-3.8,1.2c-4,2.5-6.7,5.9-7.4,10.7
					c-0.1,0.9-0.4,1.5-1.5,1.4c-0.5,0-1,0.2-1.4,0.5c-1.5,1.2-3,2.4-4.2,3.8c-1.7,1.9-2.3,4.2-2,6.7c0.1,1.1-0.1,1.5-1.2,1.7
					c-4.6,1.1-7.1,4.5-7.1,9.1c0,0.3,0,0.6,0,0.9c0.1,0.9-0.1,1.5-1.2,1.4c-0.4,0-0.9,0.1-1.3,0.3c-2.8,1.2-4.7,4.7-4.4,7.8
					c0.5,4.2,1.9,7.9,4.6,11.2c1.2,1.5,2.1,3,2.2,5c0.1,1.1,0.5,2.1,0.8,3.2c0.2,0.8,0.5,1.6,0.5,2.4c0.3,5.4,0.6,10.8,0.8,16.2
					c0.1,4.3-0.1,8.5,0.1,12.8c0.2,4,0.6,8,1.3,11.9c1.4,7.6,5.2,14.3,9.2,20.8c1,1.7,1.9,3.5,2.5,5.3c1.3,4.2,1.8,8.5,2,12.9
					c0,1.2,0,2.3,0.2,3.5c0.1,0.4,0.6,0.9,1,0.9c0.3,0,0.7-0.5,0.9-0.9c0.1-0.2,0-0.5,0-0.8c0-4-0.3-7.9-1.1-11.8
					c-0.6-3.3-1.5-6.6-3.3-9.6c-1.4-2.2-2.7-4.5-4-6.8c-4.3-7.5-6.4-15.6-6.6-24.2c-0.2-7.2-0.2-14.4-0.4-21.5
					c-0.1-3.8-0.6-7.6-0.9-11.4c0-0.1,0.1-0.2,0.1-0.4c0.3,0.3,0.6,0.6,0.8,0.9c2.3,3.1,4.5,6.2,6.8,9.2c2.1,2.8,4.7,5.1,7.4,7.4
					c2.1,1.8,4.3,3.3,6.9,4.3c2.4,0.9,4.6,0.8,6.4-1.2c0.3-0.4,0.7-0.7,1.1-1c-0.5,6.3-1,12.4-1.6,18.8c-0.3-0.5-0.4-0.7-0.5-1
					c-1.5-3.7-3.6-7-6.2-10c-3.8-4.5-8.2-8-13.8-9.7c-1.3-0.4-2,0-1.8,1.4c0.1,1.3,0.4,2.6,0.6,3.9c1.2,6.9,4.2,13,8.5,18.4
					c2.9,3.7,6.7,6.2,11.3,7.6c0.8,0.2,1.1,0.6,1,1.4c-0.1,0.9,0,1.9,0,2.8c0,0.7,0.2,1.4,1.1,1.4c0.9,0,1.1-0.6,1.1-1.4
					c0.1-2.5,0.1-5.1,0.2-7.6c0.2-3.9,0.7-7.8,2.3-11.5c1.2-2.9,2.7-5.6,4.1-8.4c1.7-3.3,3.9-6.2,6.8-8.5c3.4-2.8,7-5.5,10.4-8.3
					c0.4-0.3,0.7-0.9,0.7-1.3c0-6.5,0.4-13,1.2-19.5c0.5-4.4,1-8.8,1.5-13.3c0.3-3.2,0.6-6.3,0.9-9.5c0-0.5-0.2-1.2-0.5-1.5
					c-5.2-6.2-8.2-13.2-7.7-21.4c0.1-1,0.2-1.9,0.5-2.8c0.3-1.1,0.9-1.3,1.8-0.6c1.2,1,2.4,2,3.4,3.2c5,5.5,9.1,11.7,13.2,17.9
					c0.7,1.1,1.4,2.1,1.8,3.3c1,2.9,1.9,5.8,2.6,8.8c1.9,7.9,3.5,15.8,5.5,23.6c1.2,4.9,1.3,9.9,1.1,14.9c-0.2,4.3-0.7,8.7-1.1,13
					c-0.5,5-1.1,9.9-2.5,14.7c-1.5,5-3,10.1-4.3,15.2c-1.3,4.8-2.5,9.7-2.7,14.7c-0.2,5.1,0,10.3,0,15.5c0,0.7,0.2,1.4,1.1,1.4
					c0.8,0,1.1-0.6,1.1-1.4c0-3.4,0-6.8,0-10.2c0-2.7,0-5.5,0.3-8.1c0.9-6.8,2.5-13.5,4.7-20c2.6-8,4.2-16.2,4.8-24.6
					c0.3-3.3,0.6-6.7,0.8-10c0.4-4.9,0.2-9.7-0.9-14.5c-1.4-6-2.9-12-4.2-18c-1.1-5.1-2.3-10.1-3.9-15c-0.4-1-0.7-2.1-1.3-3
					c-2.5-3.8-4.9-7.5-7.6-11.2c-3.3-4.6-6.6-9.2-11.2-12.6c0,0,0-0.1,0-0.2c1-0.7,2.1-1.4,3-2.2c6.1-5.1,8.8-11.8,8.9-19.6
					c0-5.3-0.4-10.6-0.6-15.9c-0.1-2.6-0.2-5.1-0.4-7.7c-0.5-5.2,0-10.3,1.9-15.1c1.1-2.6,2.5-5.1,3.8-7.6c0.6-1.2,0.4-1.8-0.9-2.1
					c-0.5-0.1-0.9-0.1-1.4-0.1c-7-0.1-13,2.2-18.2,7c-0.3,0.2-0.5,0.4-0.9,0.7c-0.2-0.4-0.3-0.7-0.4-1c-1.2-3.5-3-6.5-5.5-9.2
					c-1.1-1.2-1.7-1.2-2.7,0.1c-2.4,3.2-4.2,6.8-5.4,10.6c-0.1,0.3-0.2,0.5-0.4,0.9c-0.5-0.4-0.9-0.6-1.3-0.9
					c-3.7-3.1-7.9-5.3-12.7-6.3c-2.7-0.6-5.4-1-8.2-0.5c-1.3,0.2-1.6,1-0.9,2.1c0.4,0.7,0.9,1.4,1.3,2.1c3,5.2,4.7,10.8,4.6,16.8
					c-0.1,3.3-0.4,6.6-0.5,10c-0.2,4.1-0.4,8.2-0.7,12.2c-0.2,3.5,0,7.1,0.8,10.5c1.2,5.9,4.6,10.4,9.4,14
					C168.9,104.4,169.2,104.6,169.4,104.8z M299.8,287.2c-0.2-0.7-0.3-1.1-0.4-1.4c-0.3-2-0.2-4,0.3-6c0.2-1.1,0.4-2.3,0.5-3.4
					c0-1.2-0.9-1.9-2.1-1.6c-0.6,0.1-1.1,0.4-1.7,0.7c-0.8,0.4-1.6,0.9-2.5,1.3c-1.3,0.6-1.9,0.4-2.7-0.7c-0.6-0.8-1.6-1-2.3-0.6
					c-0.6,0.4-0.9,1.5-0.5,2.2c0.2,0.4,0.6,0.6,0.8,1c0.2,0.3,0.6,0.8,0.5,1.1c-0.5,3.3-1.7,6.4-4,8.9c-1.5,1.6-3.4,1.9-5.3,1
					c-1-0.5-1-0.6-0.5-1.6c0.9-1.7,1.8-3.4,2.5-5.2c0.5-1.2,0.5-2.5,0-3.8c-0.8-2.1-3-3-5-1.7c-0.8,0.5-1.5,1.2-2,2
					c-1.6,2.9-1.5,5.9,0.1,8.8c0.4,0.8,0.3,1.3-0.3,1.8c-1,0.8-1.9,1.6-2.9,2.4c-0.8,0.6-1,1.3-0.5,1.9c0.6,0.7,1.3,0.4,1.8,0
					c1.1-0.9,2.2-1.9,3.3-2.9c0.5-0.4,0.9-0.6,1.5-0.2c4,2.1,7.3,1.3,9.9-2.3c1.8-2.5,3.1-5.4,3.3-8.5c0.1-0.7,0.4-1,1.2-1.2
					c1.1-0.2,2.1-0.7,3.1-1c0.4-0.2,0.9-0.4,1.5-0.7c-0.2,1.6-0.4,2.9-0.5,4.2c-0.2,2.3-0.2,4.5,0.7,6.7c0.7,1.8,2.4,2.1,3.7,0.7
					c0.4-0.5,0.8-1,1.1-1.5c0.7-1.1,1.4-2.3,2.1-3.4c0.2-0.3,0.4-0.5,0.5-0.8c0.1,0,0.2,0.1,0.2,0.1c-0.1,1.2-0.1,2.4-0.2,3.6
					c-0.1,1.4,0.2,2.1,1.1,2.2c0.9,0.1,1.2-0.5,1.3-2c0.1-3.7,1.4-7,3.8-9.9c0.5-0.5,1.1-1,1.7-1.4c1.3-0.7,2.4,0,2.3,1.5
					c0,0.5-0.2,1-0.2,1.5c-0.1,2.3,0.2,4.5,1.3,6.5c0.8,1.4,2.1,1.9,3.6,1.3c0.6-0.2,1.3-0.6,1.1-1.4c-0.2-0.9-0.9-1-1.6-0.8
					c-0.7,0.2-1.2-0.1-1.4-0.8c-0.2-0.7-0.4-1.4-0.4-2c-0.1-2-0.2-4-0.2-6c0-1.6-1.1-2.6-2.6-2.7c-2-0.1-3.4,0.8-4.8,2.1
					c-0.5,0.5-1,1.1-1.6,1.8c-0.1-0.5-0.2-0.6-0.2-0.7c0.1-0.9,0.1-1.9,0.3-2.8c0.1-0.7,0-1.3-0.8-1.5c-0.8-0.1-1.4,0.4-1.5,1.2
					c-0.7,4.9-3.3,9-5.9,13.1C300.4,286.6,300.2,286.8,299.8,287.2z M200.9,306.5c0.9,0.5,1.4,0.8,2,1.1c2.9,1.3,5.5,0.4,6.9-2.4
					c0.6-1.2,0.9-2.4,1.2-3.7c0.5-2.4,0.6-4.8-0.3-7.1c-0.9-2.2-2.7-3.3-5-2.6c-1.2,0.3-2.3,1.1-3.4,1.7c-0.3,0.2-0.5,0.4-1.1,0.8
					c0-0.7,0-1.2,0-1.6c0-0.4,0.1-0.8,0.1-1.2c0-0.7-0.3-1.2-1-1.3c-0.8-0.1-1.2,0.4-1.3,1.1c-0.1,0.3,0,0.6-0.1,0.9
					c0,0.8,0,1.7,0,2.5c-0.1,1.1-1.1,2.3-2.2,2.5c-1,0.2-0.9-0.9-1.3-1.3c-1.5-2.1-3.8-2.8-6-1.4c-1.1,0.7-2.1,1.6-2.8,2.6
					c-1.7,3-2.2,6.2-1.3,9.5c0.9,3.3,4.1,4.5,7.1,2.9c1.5-0.8,2.5-2.1,2.9-3.7c0.5-1.5,0.8-3.2,1-4.8c0.2-1.5,0.7-2,2.3-2
					c0,0.4,0.1,0.7,0.1,1.1c-0.1,1.6-0.2,3.2-0.2,4.8c-0.1,6-0.1,12-0.2,18c0,0.8,0.1,1.5,1.1,1.6c1,0,1.1-0.7,1.1-1.5
					c0.1-4,0.1-7.9,0.2-11.9C200.7,309.6,200.8,308.2,200.9,306.5z M127.3,305.9c-0.1-0.5-0.1-0.8-0.3-1c-0.3-0.3-0.8-0.8-1.2-0.7
					c-0.4,0-0.8,0.5-1.1,0.8c-0.2,0.2-0.2,0.6-0.2,0.9c-0.4,2.4-0.6,4.9-1.1,7.3c-0.3,1.7-0.9,3.3-1.6,4.9c-0.3,0.8-1.2,1.3-2.1,1
					c-0.9-0.3-1.2-1.1-1.2-2c-0.1-2.9-0.3-5.8-0.4-8.8c0-0.7-0.2-1.2-1-1.2c-0.8,0-1.2,0.4-1.2,1.1c-0.1,0.7-0.1,1.4-0.2,2.1
					c-0.9,4.3-1.6,8.6-4.3,12.2c-0.2,0.3-0.2,1,0,1.3c0.2,0.3,0.9,0.4,1.3,0.3c0.4-0.1,0.8-0.5,1-0.8c0.7-1.2,1.3-2.5,1.9-3.7
					c0.2-0.4,0.3-0.8,0.5-1.2c0.4,0.3,0.5,0.6,0.6,0.9c0.5,1.2,1.5,2,2.8,2.3c1.7,0.3,3.4-0.7,4.5-2.5c0.2-0.4,0.4-0.8,0.6-1.1
					c0.1,0,0.3,0.1,0.4,0.1c0,2.1,0,4.2,0,6.3c0,2.9,0,5.7,0,8.6c0,1.2,0.2,2.4,0.3,3.6c0.1,0.7,0.7,1.1,1.4,1
					c0.7-0.1,0.9-0.7,0.8-1.4c0-0.5-0.1-0.9-0.2-1.4c-0.1-4.2-0.1-8.3-0.2-12.5c0-0.4,0.1-0.8,0.1-1.3c0.4,0.1,0.7,0.2,1,0.3
					c3.1,1,5.6-0.2,7-3.1c1.3-2.9,1.3-5.9,1-8.9c-0.1-1.1-0.5-2.2-0.9-3.2c-0.4-1.1-1.3-1.8-2.5-1.9c-1.8-0.2-3.4,0.2-4.8,1.4
					C128,305.4,127.7,305.6,127.3,305.9z M85.5,325.6c0.2,0.3,0.4,0.4,0.4,0.6c1.7,3.3,5.3,2.4,6.7-0.1c0.6-1.2,1-2.5,1.4-3.7
					c0.2-0.4,0.3-0.9,0.5-1.4c0.4,0.7,0.5,1.4,0.7,2.1c0.4,1.3,1.1,2.5,2.4,3c1.8,0.7,3.9-0.1,4.9-2c0.7-1.4,1.3-2.9,1.9-4.4
					c0.2-0.4,0.3-0.8,0.5-1.2c0.3,0.4,0.3,0.8,0.3,1.1c0,1.9,0,3.9,0,5.8c0,0.3-0.1,0.7,0.1,0.9c0.3,0.4,0.7,0.8,1,0.9
					c0.3,0,0.8-0.5,1-0.8c0.2-0.2,0.1-0.6,0.1-1c0-3-0.1-6-0.2-9.1c0-6.2,0-12.4,0-18.6c0-0.4,0.1-0.9-0.1-1.3
					c-0.2-0.4-0.7-0.8-1-0.8c-0.4,0-0.8,0.5-1.1,0.8c-0.1,0.2-0.1,0.5-0.1,0.8c-0.1,3.2-0.1,6.4-0.4,9.6c-0.3,4.9-1.3,9.6-3,14.2
					c-0.3,0.9-0.8,1.8-1.4,2.5c-0.7,0.9-1.7,0.9-2.3-0.1c-0.4-0.7-0.7-1.5-0.8-2.3c-0.2-2.4-0.3-4.9-0.4-7.4c0-0.3,0-0.6-0.1-0.9
					c-0.2-0.7-0.7-1.2-1.5-1.2c-0.8,0-1,0.5-1.1,1.2c0,0.2-0.1,0.5-0.1,0.7c-0.6,2.8-1.1,5.5-1.8,8.3c-0.3,1.2-0.8,2.4-1.4,3.5
					c-0.2,0.4-1,0.8-1.5,0.6c-0.5-0.1-1-0.7-1.3-1.2c-0.2-0.4-0.2-1-0.2-1.5c0-2.7,0-5.3,0-8c0-1.4-0.3-1.9-1.1-1.9
					c-0.8,0-1.2,0.5-1.3,1.8c0,0,0,0.1,0,0.1c-0.2,3.8-0.9,7.5-2.4,11c-0.1,0.2-0.2,0.4-0.1,0.5c0.2,0.5,0.4,1,0.8,1.3
					c0.6,0.4,1-0.1,1.3-0.6C85,326.7,85.2,326.3,85.5,325.6z M259.9,291.9c0.3,0.6,0.5,0.9,0.7,1.2c0.5,0.8,1,1.8,1.7,2.5
					c1.6,1.7,3.5,1.4,4.6-0.6c0.3-0.6,0.6-1.3,0.8-1.9c0.5-1.3,0.9-2.6,1.3-3.9c0.7-2.6,1.5-5.2,2.1-7.9c0.1-0.4-0.1-1-0.4-1.3
					c-0.2-0.2-0.8-0.3-1.1-0.2c-0.4,0.2-0.7,0.7-0.8,1.2c-0.8,3-1.6,6-2.5,9c-0.3,1.1-0.8,2.1-1.3,3.1c-0.5,1-1.2,1-1.8,0
					c-0.4-0.7-0.8-1.4-1.1-2.2c-0.8-2.2-1.3-4.5-1.3-6.8c0-1.4-0.4-2-1.2-2c-0.8,0-1.2,0.6-1.2,2.1c0,0.6,0,1.1,0,1.7
					c-0.2,2.7-0.5,5.4-2.1,7.7c-0.5,0.7-1,1.4-1.9,1.2c-1-0.2-1.4-0.9-1.5-1.8c-0.4-2.2-0.8-4.4-1-6.7c-0.1-0.9-0.4-1.5-1.2-1.9
					c-1.9-0.9-3.7-0.7-5.4,0.4c-2,1.2-2.9,3.2-3.6,5.3c-0.5,1.6-0.7,3.2-1.3,4.7c-0.4,1.1-1,2.1-1.7,3.1c-0.6,0.8-0.8,1.4-0.3,1.9
					c0.7,0.7,1.3,0.4,1.8-0.2c0.5-0.4,0.8-0.9,1.2-1.4c0.2-0.2,0.4-0.4,0.6-0.7c0.2,0.3,0.4,0.4,0.5,0.6c1.7,1.9,3.9,2,5.5,0
					c0.8-0.9,1.2-2.1,1.8-3.2c0.2-0.4,0.3-0.8,0.6-1.4c0.4,0.7,0.6,1.2,0.9,1.7c1.1,1.9,2.8,2.4,4.8,1.4c1.4-0.7,2.4-1.9,3-3.3
					C259.4,292.9,259.6,292.5,259.9,291.9z M220.9,283.3c0.8-0.2,1.6-0.3,2.3-0.5c0.7-0.2,0.9-0.8,0.7-1.4c-0.2-0.7-0.7-0.8-1.3-0.7
					c-0.6,0.1-1.2,0.4-1.7,0.3c-0.4,0-0.9-0.4-1.3-0.7c0.3-0.3,0.5-0.8,0.9-0.9c3.4-1.1,6.7-2.1,10.1-3.2c0.8-0.2,1,0,1,0.8
					c-0.1,3.6-0.2,7.2-0.3,10.9c-0.1,5.6-0.2,11.2-0.3,16.9c0,0.6-0.1,1.3-0.1,1.9c0,0.7,0.4,1.2,1.1,1.2c0.7,0,1.1-0.4,1.2-1.1
					c0-0.2,0-0.5,0-0.7c0.1-5.4,0.3-10.9,0.4-16.3c0.1-4.3,0.1-8.6,0.2-12.9c0-1.6,0-1.5,1.5-2c5.3-1.7,10.5-3.3,15.8-5
					c0.4-0.1,1-0.2,1.2-0.6c0.3-0.4,0.5-1,0.4-1.5c-0.1-0.3-0.8-0.4-1.2-0.5c-0.2,0-0.4,0.1-0.7,0.2c-5,1.6-10,3.2-15,4.8
					c-1.8,0.6-1.8,0.5-1.8-1.3c0-0.1,0-0.1,0-0.2c-0.1-0.7-0.4-1.2-1.1-1.2c-0.8,0-1.2,0.5-1.2,1.2c0,0.5-0.1,1,0,1.5
					c0.1,0.9-0.3,1.3-1.2,1.6c-3.2,0.9-6.4,1.9-9.5,2.9c-0.9,0.3-1.9,0.7-2.7,1.2c-1,0.6-1.3,1.6-1.2,2.8c0.1,1.1,0.8,1.7,1.8,2.1
					C219.5,283.1,220.2,283.2,220.9,283.3z M73.4,305.8c0,0.5,0.1,0.9,0.1,1.3c-0.1,4-0.1,8-0.2,12.1c-0.1,5.5-0.3,11-0.4,16.5
					c0,0.7,0.1,1.5,1.1,1.5c0.9,0,1.2-0.6,1.2-1.4c0.1-1.5,0.2-3.1,0.2-4.6c0.1-6.4,0.3-12.8,0.4-19.2c0-1.4,0.1-2.8,0.2-4.2
					c0.1-0.9-0.1-2.1,0.4-2.7c0.5-0.6,1.7-0.7,2.7-1c5.1-1.6,10.1-3.2,15.2-4.9c1-0.3,1.4-1,1.1-1.8c-0.4-0.9-1.1-0.6-1.8-0.4
					c-5.1,1.6-10.2,3.3-15.3,4.9c-2,0.6-2,0.6-2.2-1.4c-0.1-0.6-0.3-1-1-1.1c-0.7,0-1.2,0.3-1.2,1c-0.1,0.5-0.1,0.9,0,1.4
					c0.1,1-0.3,1.5-1.3,1.8c-3.3,0.9-6.5,2-9.7,3c-0.9,0.3-1.7,0.7-2.4,1.3c-1.2,1-1.1,3,0.1,4c1.1,0.9,4.4,1.1,5.5,0.3
					c0.3-0.2,0.6-1,0.5-1.3c-0.1-0.3-0.8-0.7-1.2-0.7c-0.5,0-1,0.3-1.5,0.4c-0.7,0.2-1.4,0.1-1.5-0.7c-0.1-0.3,0.6-0.9,1.1-1
					c2.9-1,5.9-1.9,8.8-2.8C72.4,305.9,72.8,305.9,73.4,305.8z M161.6,311.1c-0.1,0.5-0.2,1.5-0.6,2.4c-0.7,1.8-3,3-4.9,2.9
					c-1.8-0.2-3.3-1.5-3.8-3.5c-0.2-1-0.1-2,0-3c0.1-0.8,0.2-1.4-0.7-1.7c-0.7-0.2-1.4,0.2-1.6,1.1c-0.2,1.1-0.4,2.3-0.2,3.3
					c0.4,2.8,1.8,5,4.6,5.9c3.9,1.1,9.3-1.6,9.3-6.7c0-4.5-1.4-8.6-3.8-12.3c-0.7-1-1.4-2-2.1-3c-1.4-2.1-2.4-4.4-2.6-6.9
					c-0.2-1.9,0-3.7,1.1-5.3c1.1-1.7,2.8-2.1,4.8-1.8c1.9,0.3,2.8,1.5,3.1,3.3c0.2,0.7,0.2,1.5,0.3,2.3c0.1,0.7,0.5,1.1,1.3,1.1
					c0.8,0,1-0.6,0.9-1.3c-0.2-1.3-0.4-2.7-0.7-4c-0.4-1.3-1.3-2.4-2.6-3.1c-3.9-2-8.6-0.1-9.9,4.1c-1.2,3.9-0.7,7.6,1.4,11.1
					c1.2,2.1,2.6,4,3.8,6.1C160.4,304.7,161.4,307.6,161.6,311.1z M170.4,307.5c0.1,0,0.2,0.1,0.3,0.1c0,1.1-0.1,2.2-0.2,3.4
					c-0.1,1.1,0.3,1.8,1.1,1.9c0.7,0,1.2-0.5,1.2-1.6c0.1-1.7,0.1-3.4,0.2-5.1c0.1-2,0.6-3.9,1.7-5.7c0.4-0.6,0.9-1.1,1.4-1.5
					c0.9-0.6,1.6-0.3,2,0.7c0.2,0.7,0.4,1.5,0.4,2.2c0.2,2.7,0.2,5.4,0.4,8.1c0.1,1,0.6,1.9,1.6,2.4c0.6,0.3,1.2,0.3,1.6-0.3
					c0.4-0.6,0.2-1.1-0.3-1.7c-0.4-0.4-0.7-1-0.8-1.5c-0.2-1-0.2-2-0.2-3c0-1.8,0-3.7,0-5.5c-0.1-1.5-0.2-3.1-1.7-3.8
					c-1.5-0.8-3.1-0.3-4.5,0.6c-0.1,0-0.1,0.1-0.2,0.1c-0.2,0.1-0.4,0.2-0.8,0.4c0-0.4-0.1-0.6-0.1-0.9c-0.1-4.6-0.1-9.2-0.2-13.8
					c0-0.4,0.1-0.9-0.1-1.2c-0.3-0.4-0.8-0.9-1.2-0.9c-0.3,0-0.7,0.6-1,1c-0.1,0.3,0,0.6,0,1c0,5,0,10,0,15c0,0.6,0,1.2-0.2,1.8
					c-0.5,2.8-1.7,5.4-3.4,7.7c-0.4,0.6-0.6,1.2,0.1,1.7c0.7,0.5,1.3,0.3,1.7-0.3C169.8,308.4,170.1,307.9,170.4,307.5z"/>
				<path d="M169.4,104.8c-0.2-0.1-0.5-0.4-0.8-0.6c-4.8-3.6-8.2-8.1-9.4-14c-0.7-3.4-1-7-0.8-10.5c0.3-4.1,0.4-8.2,0.7-12.2
					c0.2-3.3,0.5-6.6,0.5-10c0.1-6-1.6-11.6-4.6-16.8c-0.4-0.7-0.9-1.4-1.3-2.1c-0.6-1.1-0.3-1.9,0.9-2.1c2.8-0.5,5.5-0.1,8.2,0.5
					c4.8,1,8.9,3.2,12.7,6.3c0.4,0.3,0.8,0.6,1.3,0.9c0.2-0.4,0.3-0.7,0.4-0.9c1.2-3.9,2.9-7.4,5.4-10.6c1-1.3,1.6-1.3,2.7-0.1
					c2.5,2.7,4.3,5.7,5.5,9.2c0.1,0.3,0.2,0.6,0.4,1c0.4-0.3,0.6-0.5,0.9-0.7c5.1-4.7,11.2-7,18.2-7c0.5,0,0.9,0.1,1.4,0.1
					c1.3,0.2,1.5,0.9,0.9,2.1c-1.3,2.5-2.8,5-3.8,7.6c-2,4.8-2.4,9.9-1.9,15.1c0.2,2.5,0.3,5.1,0.4,7.7c0.2,5.3,0.6,10.6,0.6,15.9
					c0,7.8-2.8,14.5-8.9,19.6c-1,0.8-2,1.5-3,2.2c0,0.1,0,0.2,0,0.2c4.6,3.4,7.9,8,11.2,12.6c2.6,3.6,5.1,7.4,7.6,11.2
					c0.6,0.9,1,2,1.3,3c1.7,4.9,2.8,10,3.9,15c1.3,6,2.8,12,4.2,18c1.1,4.8,1.2,9.6,0.9,14.5c-0.2,3.3-0.6,6.7-0.8,10
					c-0.6,8.4-2.2,16.6-4.8,24.6c-2.1,6.5-3.8,13.2-4.7,20c-0.3,2.7-0.3,5.4-0.3,8.1c0,3.4,0,6.8,0,10.2c0,0.7-0.3,1.4-1.1,1.4
					c-0.8,0-1.1-0.7-1.1-1.4c0-5.2-0.2-10.3,0-15.5c0.2-5,1.4-9.9,2.7-14.7c1.4-5.1,2.8-10.1,4.3-15.2c1.4-4.8,2-9.8,2.5-14.7
					c0.5-4.3,0.9-8.7,1.1-13c0.3-5,0.1-9.9-1.1-14.9c-1.9-7.8-3.6-15.8-5.5-23.6c-0.7-3-1.7-5.9-2.6-8.8c-0.4-1.2-1.1-2.3-1.8-3.3
					c-4.1-6.2-8.2-12.4-13.2-17.9c-1-1.2-2.2-2.2-3.4-3.2c-0.9-0.7-1.5-0.5-1.8,0.6c-0.3,0.9-0.4,1.9-0.5,2.8
					c-0.5,8.2,2.4,15.2,7.7,21.4c0.3,0.4,0.5,1,0.5,1.5c-0.2,3.2-0.5,6.4-0.9,9.5c-0.5,4.4-1,8.8-1.5,13.3c-0.8,6.5-1.2,13-1.2,19.5
					c0,0.4-0.4,1-0.7,1.3c-3.5,2.8-7,5.5-10.4,8.3c-2.9,2.4-5.1,5.2-6.8,8.5c-1.4,2.8-2.8,5.6-4.1,8.4c-1.6,3.6-2.2,7.5-2.3,11.5
					c-0.1,2.5-0.1,5.1-0.2,7.6c0,0.7-0.2,1.4-1.1,1.4c-0.9,0-1.1-0.6-1.1-1.4c0-0.9-0.1-1.9,0-2.8c0-0.8-0.2-1.2-1-1.4
					c-4.5-1.3-8.3-3.9-11.3-7.6c-4.3-5.4-7.3-11.5-8.5-18.4c-0.2-1.3-0.5-2.6-0.6-3.9c-0.1-1.4,0.5-1.8,1.8-1.4
					c5.7,1.7,10.1,5.3,13.8,9.7c2.5,3,4.7,6.3,6.2,10c0.1,0.3,0.3,0.5,0.5,1c0.5-6.4,1-12.6,1.6-18.8c-0.4,0.3-0.8,0.6-1.1,1
					c-1.9,1.9-4.1,2.1-6.4,1.2c-2.6-1-4.8-2.6-6.9-4.3c-2.7-2.3-5.3-4.6-7.4-7.4c-2.3-3.1-4.6-6.1-6.8-9.2c-0.2-0.3-0.5-0.6-0.8-0.9
					c-0.1,0.2-0.2,0.3-0.1,0.4c0.3,3.8,0.8,7.6,0.9,11.4c0.2,7.2,0.2,14.4,0.4,21.5c0.2,8.6,2.3,16.7,6.6,24.2
					c1.3,2.3,2.7,4.5,4,6.8c1.8,2.9,2.7,6.2,3.3,9.6c0.7,3.9,1.1,7.8,1.1,11.8c0,0.3,0.1,0.6,0,0.8c-0.3,0.4-0.7,1-0.9,0.9
					c-0.4-0.1-1-0.5-1-0.9c-0.2-1.1-0.2-2.3-0.2-3.5c-0.1-4.4-0.7-8.7-2-12.9c-0.6-1.8-1.5-3.6-2.5-5.3c-4-6.5-7.8-13.2-9.2-20.8
					c-0.7-3.9-1.1-7.9-1.3-11.9c-0.2-4.2,0-8.5-0.1-12.8c-0.2-5.4-0.5-10.8-0.8-16.2c0-0.8-0.3-1.6-0.5-2.4
					c-0.3-1.1-0.7-2.1-0.8-3.2c-0.1-2-1-3.5-2.2-5c-2.7-3.2-4.2-7-4.6-11.2c-0.3-3,1.5-6.6,4.4-7.8c0.4-0.2,0.9-0.4,1.3-0.3
					c1.2,0.1,1.4-0.5,1.2-1.4c0-0.3,0-0.6,0-0.9c-0.1-4.7,2.5-8.1,7.1-9.1c1.1-0.3,1.3-0.6,1.2-1.7c-0.3-2.5,0.3-4.8,2-6.7
					c1.3-1.4,2.8-2.6,4.2-3.8c0.4-0.3,0.9-0.5,1.4-0.5c1.1,0,1.3-0.5,1.5-1.4c0.7-4.8,3.4-8.3,7.4-10.7
					C166.7,105.3,168.1,105.2,169.4,104.8z M209.8,37.3c-0.6,0-1.1,0-1.5,0c-4.2,0.3-8.2,1.5-11.7,4c-5.6,3.9-9.2,9.3-11.5,15.6
					c-3.6,9.9-5.3,20.2-5.6,30.8c-0.1,5.8,0.3,11.6,0.5,17.4c0,0.7,0.3,1.1,1,1.1c1.8,0,3.5,0.1,5.3-0.1c4.1-0.5,7.9-1.9,11.1-4.5
					c5.6-4.6,8.2-10.8,8.1-17.9c-0.1-6.7-0.5-13.3-0.8-20c-0.1-1.6-0.2-3.3-0.2-4.9c0-2.4-0.1-4.7,0.2-7.1c0.5-4.7,2.2-9,4.4-13.2
					C209.4,38.2,209.5,37.8,209.8,37.3z M182.2,138.5c0.1,0,0.2-0.1,0.3-0.1c0.1-1.2,0.2-2.3,0.2-3.5c-0.1-7.1-0.3-14.3-0.4-21.4
					c0-0.8-0.3-1.4-1-1.8c-3.7-2.1-7.6-3.6-11.7-4.4c-0.9-0.2-2,0-2.7,0.4c-4.3,2.6-6.5,6.4-6.7,11.4c-0.1,4.1,0.4,8.1,1.7,12
					c1.6,4.7,3.5,9.3,5.4,13.9c3.3,8.2,7.5,15.9,13.7,22.3c3,3.1,6,6.3,8.9,9.4c1.1,1.2,2.5,1,3.8,0.5c1.2-0.4,1.8-1.6,1.8-2.8
					c0-0.9-0.4-1.9-0.8-2.8c-0.4-0.9-1.1-1.7-1.6-2.5c-4.2-6.3-7-13.1-9.3-20.2c-1.4-4.3-2.7-8.6-5.2-12.5c-0.1-0.2,0-0.8,0.2-1
					c0.6-0.7,1.4-0.6,1.9,0.3C181.2,136.6,181.7,137.6,182.2,138.5z M177.7,105.5c0-0.7,0-1.2,0-1.8c-0.2-2.9-0.5-5.7-0.5-8.6
					c-0.1-7.4,0.1-14.7,1.5-22c1.1-5.6,2.3-11.2,4.2-16.6c0.2-0.7,0.2-1.3-0.2-1.9c-1.5-2.6-3.3-4.9-5.4-7
					c-4.6-4.7-9.9-7.9-16.4-8.9c-1.4-0.2-2.7-0.2-4.4-0.4c0.3,0.7,0.5,1.1,0.7,1.5c2.7,4.9,4.6,10.1,4.5,15.8
					c-0.1,5.1-0.3,10.3-0.6,15.4c-0.3,5.3-0.7,10.5-0.2,15.8c0.9,8.7,7.2,16.3,15.8,18.4C177,105.5,177.3,105.5,177.7,105.5z
					 M185.9,177.6c0.2-1.1-0.3-1.9-1.1-2.7c-2.4-2.5-4.8-5-7.1-7.7c-3.8-4.4-7-9.3-9.4-14.5c-2.7-5.8-5-11.8-7.5-17.7
					c-1.8-4.3-2.6-8.8-2.9-13.5c-0.1-1.3-0.6-1.6-1.7-0.8c-1,0.7-1.9,1.5-2.8,2.3c-1.8,1.8-2.5,3.9-2.1,6.4c1,6.9,2.8,13.5,6,19.7
					c2.2,4.2,4.5,8.5,6.6,12.8c1.7,3.4,4.1,6.3,6.5,9c2.9,3.2,6.1,6.2,9.2,9.2c0.8,0.8,1.9,1.3,3,1.6c1.5,0.5,2.6-0.3,2.9-1.9
					C185.8,179.1,185.8,178.4,185.9,177.6z M185,114.3c-0.1,0.1-0.2,0.1-0.3,0.2c0,0.3-0.1,0.6-0.1,0.9c0.1,2.7,0.3,5.3,0.3,8
					c0,5.7,0.1,11.5-0.3,17.2c-0.2,2.9,0.4,5.5,1.3,8.2c2.2,6.5,4.8,12.9,8.6,18.7c0.3,0.4,0.6,0.8,1,1.4c0.1-0.4,0.2-0.6,0.2-0.8
					c0.4-4.1,0.7-8.2,1.2-12.3c0.7-6.7,1.4-13.5,2.2-20.2c0.1-0.8-0.1-1.5-0.6-2.2c-2.7-3.2-4.7-6.8-6-10.8c-0.6-2-1.7-3.5-3.3-4.8
					C187.7,116.6,186.4,115.4,185,114.3z M176.1,186.1c1.7-0.1,3-1.3,3-3c0-0.3-0.1-0.6-0.3-0.8c-1.6-1.6-3.2-3.2-4.8-4.8
					c-1.9-2-4-3.8-5.8-5.9c-3-3.6-5.8-7.4-7.7-11.7c-0.7-1.5-1.5-2.9-2.3-4.4c-3.6-6.8-6.9-13.7-8.2-21.4c-0.2-1.3-0.5-1.4-1.7-1.1
					c-3.4,0.9-5.2,3.6-5.1,7.2c0.1,3.3,1,6.3,2.8,9.1c0.5,0.8,1,1.7,1.5,2.6c3.9,6.4,7.2,13,11.6,19.1c0.7,0.9,1.2,1.9,1.8,2.9
					c1.8,3,3.8,5.7,6.8,7.6c2.1,1.3,4.2,2.8,6.3,4.1C174.6,185.8,175.4,185.9,176.1,186.1z M136.2,149.6c0.3,3,0.9,6,2.8,8.6
					c2.3,3.1,4.5,6.3,6.8,9.4c2.8,3.8,5.5,7.7,8.5,11.3c2.2,2.6,4.8,4.8,7.4,6.9c1.6,1.3,3.6,2.2,5.5,3.2c1.2,0.6,2.5,0.3,3.6-0.7
					c1-1,1-1.7-0.3-2.5c-2.1-1.4-4.2-2.7-6.2-4.2c-1.1-0.9-2.1-2-2.9-3.1c-1.8-2.6-3.5-5.2-5.3-7.9c-0.9-1.4-1.9-2.8-2.8-4.3
					c-2.5-4.3-5.1-8.6-7.6-12.9c-1.4-2.5-2.7-5-4-7.6c-0.6-1.2-1.5-1.8-2.7-1C137.4,145.8,136.1,147.2,136.2,149.6z M152,189.6
					c0,0.4,0,0.7,0.1,1c1,6.3,3.5,12,7.2,17.2c2.6,3.6,5.9,6.4,10.2,7.8c0.4,0.1,0.8,0.2,1.4,0.3c0-0.6,0.1-1,0-1.4
					c-0.5-1.4-0.8-2.9-1.6-4.2c-2.3-3.5-5.1-6.6-8.4-9.2c-0.3-0.2-0.7-0.4-0.8-0.6c-0.2-0.4-0.4-1.1-0.2-1.4
					c0.2-0.3,0.9-0.3,1.4-0.3c0.3,0,0.5,0.3,0.7,0.5c1.6,1.4,3.1,2.9,4.7,4.3c0.3,0.3,0.6,0.7,0.8,1
					C167.2,200.4,156.6,190.2,152,189.6z M184.2,52.9c0.2-0.3,0.3-0.4,0.4-0.5c1.5-2.3,3-4.6,4.4-7c0.2-0.4,0.3-1,0.2-1.5
					c-0.8-3.2-2.3-6.1-4.3-8.7c-0.2-0.3-0.5-0.5-0.8-0.7c-0.2,0.3-0.4,0.4-0.6,0.6c-2.2,3.2-3.6,6.7-4.3,10.4
					c-0.1,0.4,0.2,0.9,0.5,1.3c1.1,1.5,2.3,2.9,3.4,4.4C183.5,51.8,183.8,52.3,184.2,52.9z M188.1,178.5c-0.1,0.3-0.1,0.4-0.2,0.6
					c-0.5,4-1.9,5.2-6,4.8c-0.3,0-0.8,0.3-0.9,0.6c-0.6,2.1-2,3.3-4.2,3.6c-0.6,0.1-0.9,0.4-1,1c-0.3,2.4-0.6,4.9-0.9,7.3
					c-0.1,0.8-0.1,1.7-0.2,2.5c0.1,0.1,0.3,0.1,0.4,0.2c2.9-8,8.5-13.9,15.3-18.9C189.6,179.5,188.9,179.1,188.1,178.5z
					 M191.3,107.4c-2.1,0.4-4.3,0.7-6.4,1.1c-0.2,0-0.4,0.2-0.4,0.3c0.1,0.9-0.1,2,0.4,2.5c1.8,1.7,3.8,3.2,5.8,4.7
					c0.1,0.1,0.2,0,0.2,0C191,113.2,191.1,110.3,191.3,107.4z M180.3,108.7c0.5,0.3,1.1,0.5,1.7,0.8
					C182,108.4,181.6,108.2,180.3,108.7z"/>
				<path d="M299.8,287.2c0.4-0.4,0.6-0.6,0.7-0.9c2.6-4.1,5.2-8.1,5.9-13.1c0.1-0.8,0.6-1.3,1.5-1.2c0.8,0.1,0.9,0.7,0.8,1.5
					c-0.1,0.9-0.2,1.8-0.3,2.8c0,0.1,0.1,0.2,0.2,0.7c0.6-0.7,1-1.3,1.6-1.8c1.3-1.2,2.8-2.2,4.8-2.1c1.6,0.1,2.6,1.1,2.6,2.7
					c0.1,2,0.1,4,0.2,6c0,0.7,0.2,1.4,0.4,2c0.2,0.6,0.6,1,1.4,0.8c0.8-0.2,1.4,0,1.6,0.8c0.2,0.9-0.5,1.2-1.1,1.4
					c-1.5,0.6-2.7,0.2-3.6-1.3c-1.2-2-1.4-4.3-1.3-6.5c0-0.5,0.2-1,0.2-1.5c0.1-1.5-1-2.2-2.3-1.5c-0.6,0.3-1.2,0.8-1.7,1.4
					c-2.4,2.8-3.7,6.1-3.8,9.9c0,1.4-0.4,2-1.3,2c-0.9-0.1-1.2-0.8-1.1-2.2c0.1-1.2,0.1-2.4,0.2-3.6c-0.1,0-0.2-0.1-0.2-0.1
					c-0.2,0.2-0.4,0.5-0.5,0.8c-0.7,1.1-1.4,2.3-2.1,3.4c-0.3,0.5-0.7,1.1-1.1,1.5c-1.3,1.4-3.1,1-3.7-0.7c-0.8-2.2-0.9-4.4-0.7-6.7
					c0.1-1.3,0.3-2.6,0.5-4.2c-0.6,0.3-1,0.6-1.5,0.7c-1,0.4-2,0.8-3.1,1c-0.8,0.1-1.1,0.4-1.2,1.2c-0.3,3.2-1.5,6-3.3,8.5
					c-2.7,3.7-6,4.4-9.9,2.3c-0.6-0.3-1-0.2-1.5,0.2c-1.1,1-2.2,1.9-3.3,2.9c-0.6,0.5-1.2,0.8-1.8,0c-0.5-0.6-0.3-1.2,0.5-1.9
					c1-0.8,1.9-1.6,2.9-2.4c0.6-0.5,0.7-1,0.3-1.8c-1.6-2.9-1.8-5.9-0.1-8.8c0.4-0.8,1.2-1.5,2-2c1.9-1.2,4.1-0.4,5,1.7
					c0.5,1.3,0.5,2.6,0,3.8c-0.7,1.8-1.6,3.5-2.5,5.2c-0.5,1-0.5,1.1,0.5,1.6c1.9,0.9,3.8,0.6,5.3-1c2.4-2.5,3.5-5.6,4-8.9
					c0.1-0.3-0.3-0.7-0.5-1.1c-0.2-0.4-0.6-0.6-0.8-1c-0.4-0.8-0.1-1.9,0.5-2.2c0.7-0.4,1.7-0.2,2.3,0.6c0.8,1.1,1.4,1.3,2.7,0.7
					c0.8-0.4,1.6-0.9,2.5-1.3c0.5-0.3,1.1-0.5,1.7-0.7c1.2-0.3,2.1,0.4,2.1,1.6c0,1.1-0.2,2.3-0.5,3.4c-0.4,2-0.6,4-0.3,6
					C299.5,286.2,299.6,286.5,299.8,287.2z M277.7,287.1c1.3-1.8,2.3-3.7,2.6-5.8c0.1-0.8-0.1-1.6-0.9-1.9c-0.9-0.4-1.4,0.3-1.9,0.9
					C276.3,281.9,276.3,285.2,277.7,287.1z"/>
				<path d="M200.9,306.5c-0.1,1.7-0.1,3.1-0.2,4.6c-0.1,4-0.1,7.9-0.2,11.9c0,0.8-0.2,1.5-1.1,1.5c-1,0-1.1-0.8-1.1-1.6
					c0.1-6,0.1-12,0.2-18c0-1.6,0.1-3.2,0.2-4.8c0-0.4,0-0.7-0.1-1.1c-1.6,0-2.1,0.5-2.3,2c-0.3,1.6-0.5,3.2-1,4.8
					c-0.5,1.6-1.5,2.8-2.9,3.7c-3,1.6-6.2,0.4-7.1-2.9c-0.9-3.3-0.4-6.6,1.3-9.5c0.6-1.1,1.7-2,2.8-2.6c2.2-1.4,4.5-0.7,6,1.4
					c0.4,0.5,0.2,1.6,1.3,1.3c1.1-0.2,2.2-1.4,2.2-2.5c0-0.8,0-1.7,0-2.5c0-0.3,0-0.6,0.1-0.9c0.1-0.7,0.5-1.2,1.3-1.1
					c0.7,0.1,1,0.6,1,1.3c0,0.4-0.1,0.8-0.1,1.2c0,0.4,0,0.9,0,1.6c0.5-0.4,0.8-0.7,1.1-0.8c1.1-0.6,2.2-1.4,3.4-1.7
					c2.3-0.7,4.2,0.4,5,2.6c0.9,2.3,0.8,4.7,0.3,7.1c-0.3,1.3-0.6,2.5-1.2,3.7c-1.4,2.8-4,3.7-6.9,2.4
					C202.3,307.3,201.7,307,200.9,306.5z M209.3,298.3c-0.1,0-0.1,0-0.2-0.1c-0.1-0.7-0.1-1.3-0.3-2c-0.5-2.1-1.7-2.7-3.7-1.8
					c-2,0.9-3.4,2.4-4,4.5c-0.8,2.9-0.4,4.8,2.1,6.4c1.9,1.2,3.8,0.7,4.5-1.4C208.5,302.1,208.9,300.2,209.3,298.3z M188.8,298
					c-0.3,0.4-0.5,0.6-0.6,0.8c-1,2.2-1.3,4.5-0.8,6.9c0.2,1,0.7,1.9,1.8,2.2c1.2,0.3,2.1-0.3,2.8-1.1c1.4-1.7,1.7-3.7,1.9-5.8
					c0-0.2-0.4-0.6-0.6-0.6C191.6,300.4,189.9,300,188.8,298z M193.6,298.2c-0.2-1.2-0.7-1.7-1.5-1.9c-0.2-0.1-0.6,0.2-0.9,0.3
					c0.1,0.2,0.1,0.6,0.3,0.7C192.1,297.5,192.8,297.8,193.6,298.2z"/>
				<path d="M127.3,305.9c0.4-0.3,0.6-0.5,0.9-0.7c1.4-1.2,3-1.6,4.8-1.4c1.2,0.1,2.1,0.9,2.5,1.9c0.4,1,0.8,2.1,0.9,3.2
					c0.3,3,0.3,6.1-1,8.9c-1.3,3-3.9,4.1-7,3.1c-0.3-0.1-0.6-0.1-1-0.3c0,0.5-0.1,0.9-0.1,1.3c0.1,4.2,0.1,8.3,0.2,12.5
					c0,0.5,0.1,0.9,0.2,1.4c0.1,0.7-0.1,1.2-0.8,1.4c-0.7,0.1-1.3-0.3-1.4-1c-0.2-1.2-0.3-2.4-0.3-3.6c-0.1-2.9,0-5.7,0-8.6
					c0-2.1,0-4.2,0-6.3c-0.1,0-0.3-0.1-0.4-0.1c-0.2,0.4-0.4,0.8-0.6,1.1c-1.1,1.8-2.8,2.8-4.5,2.5c-1.4-0.2-2.3-1-2.8-2.3
					c-0.1-0.3-0.3-0.6-0.6-0.9c-0.2,0.4-0.3,0.8-0.5,1.2c-0.6,1.3-1.2,2.5-1.9,3.7c-0.2,0.4-0.6,0.7-1,0.8c-0.4,0.1-1.1,0-1.3-0.3
					c-0.2-0.3-0.2-1,0-1.3c2.7-3.6,3.4-7.9,4.3-12.2c0.1-0.7,0.1-1.4,0.2-2.1c0.1-0.7,0.5-1.2,1.2-1.1c0.8,0,1,0.5,1,1.2
					c0.1,2.9,0.2,5.8,0.4,8.8c0,0.9,0.2,1.7,1.2,2c0.9,0.3,1.8-0.2,2.1-1c0.7-1.6,1.3-3.2,1.6-4.9c0.5-2.4,0.7-4.9,1.1-7.3
					c0-0.3,0-0.7,0.2-0.9c0.3-0.3,0.7-0.8,1.1-0.8c0.4,0,0.8,0.4,1.2,0.7C127.2,305.1,127.2,305.4,127.3,305.9z M127.2,313.3
					c0.1,1.2,0.1,2.5,0.2,3.7c0,0.3,0.1,0.6,0.3,0.8c1.6,1.9,4.4,1.5,5.4-0.7c1.1-2.4,1.4-5,1.1-7.6c-0.1-0.8-0.3-1.6-0.6-2.3
					c-0.4-1-1.4-1.5-2.4-1c-1,0.5-2,1.2-2.7,2.1C127.3,309.7,126.9,311.4,127.2,313.3z"/>
				<path d="M85.5,325.6c-0.3,0.6-0.5,1.1-0.8,1.6c-0.3,0.5-0.7,1-1.3,0.6c-0.4-0.3-0.6-0.8-0.8-1.3c-0.1-0.1,0.1-0.3,0.1-0.5
					c1.5-3.5,2.2-7.2,2.4-11c0,0,0-0.1,0-0.1c0.1-1.2,0.6-1.8,1.3-1.8c0.8,0,1.1,0.6,1.1,1.9c0,2.7,0,5.3,0,8c0,0.5-0.1,1.1,0.2,1.5
					c0.3,0.5,0.8,1.1,1.3,1.2c0.4,0.1,1.3-0.3,1.5-0.6c0.6-1.1,1.1-2.3,1.4-3.5c0.7-2.7,1.2-5.5,1.8-8.3c0-0.2,0.1-0.5,0.1-0.7
					c0.1-0.6,0.3-1.2,1.1-1.2c0.8,0,1.3,0.5,1.5,1.2c0.1,0.3,0,0.6,0.1,0.9c0.1,2.5,0.2,4.9,0.4,7.4c0.1,0.8,0.4,1.6,0.8,2.3
					c0.6,1,1.6,1.1,2.3,0.1c0.6-0.8,1.1-1.6,1.4-2.5c1.7-4.6,2.7-9.3,3-14.2c0.2-3.2,0.2-6.4,0.4-9.6c0-0.3,0-0.6,0.1-0.8
					c0.3-0.3,0.7-0.8,1.1-0.8c0.4,0,0.8,0.5,1,0.8c0.2,0.3,0.1,0.8,0.1,1.3c0,6.2,0,12.4,0,18.6c0,3,0.1,6,0.2,9.1
					c0,0.3,0.1,0.7-0.1,1c-0.2,0.4-0.7,0.8-1,0.8c-0.4,0-0.8-0.5-1-0.9c-0.1-0.2-0.1-0.6-0.1-0.9c0-1.9,0-3.9,0-5.8
					c0-0.4,0-0.7-0.3-1.1c-0.2,0.4-0.3,0.8-0.5,1.2c-0.6,1.5-1.1,3-1.9,4.4c-1,1.9-3.1,2.7-4.9,2c-1.4-0.5-2-1.7-2.4-3
					c-0.2-0.7-0.4-1.4-0.7-2.1c-0.2,0.5-0.3,0.9-0.5,1.4c-0.5,1.2-0.8,2.5-1.4,3.7c-1.4,2.6-4.9,3.4-6.7,0.1
					C85.9,326.1,85.8,325.9,85.5,325.6z"/>
				<path d="M259.9,291.9c-0.3,0.7-0.5,1.1-0.6,1.5c-0.6,1.4-1.6,2.6-3,3.3c-2,1-3.7,0.5-4.8-1.4c-0.3-0.5-0.6-1-0.9-1.7
					c-0.2,0.6-0.4,1-0.6,1.4c-0.6,1.1-1,2.3-1.8,3.2c-1.6,2-3.8,2-5.5,0c-0.2-0.2-0.3-0.3-0.5-0.6c-0.2,0.3-0.4,0.5-0.6,0.7
					c-0.4,0.5-0.8,1-1.2,1.4c-0.5,0.5-1.2,0.8-1.8,0.2c-0.5-0.5-0.3-1.2,0.3-1.9c0.7-0.9,1.3-2,1.7-3.1c0.5-1.5,0.8-3.2,1.3-4.7
					c0.6-2.1,1.6-4.1,3.6-5.3c1.7-1.1,3.5-1.3,5.4-0.4c0.8,0.4,1.1,1,1.2,1.9c0.2,2.2,0.6,4.5,1,6.7c0.1,0.9,0.6,1.6,1.5,1.8
					c0.9,0.1,1.4-0.6,1.9-1.2c1.6-2.3,1.9-5,2.1-7.7c0-0.6,0-1.1,0-1.7c0-1.5,0.3-2,1.2-2.1c0.9,0,1.2,0.6,1.2,2
					c0,2.4,0.5,4.6,1.3,6.8c0.3,0.8,0.7,1.5,1.1,2.2c0.6,0.9,1.3,0.9,1.8,0c0.5-1,1-2,1.3-3.1c0.9-3,1.6-6,2.5-9
					c0.1-0.4,0.4-0.9,0.8-1.2c0.2-0.2,0.9,0,1.1,0.2c0.3,0.3,0.5,0.9,0.4,1.3c-0.7,2.6-1.4,5.3-2.1,7.9c-0.4,1.3-0.8,2.6-1.3,3.9
					c-0.2,0.7-0.5,1.3-0.8,1.9c-1.1,2-3,2.3-4.6,0.6c-0.7-0.7-1.1-1.6-1.7-2.5C260.3,292.8,260.2,292.4,259.9,291.9z M249.2,287.7
					c0.1-1.5-0.1-1.6-1.1-1.7c-1.2-0.1-2,0.7-2.6,1.5c-1.8,2.4-2.1,5-1.6,7.9c0.1,0.5,0.6,1.1,1.1,1.2c0.5,0.1,1.1-0.2,1.6-0.6
					c0.3-0.2,0.5-0.7,0.7-1.1C248.4,292.5,248.9,289.9,249.2,287.7z"/>
				<path d="M220.9,283.3c-0.7-0.2-1.4-0.2-2.1-0.5c-1-0.3-1.7-1-1.8-2.1c-0.2-1.1,0.1-2.2,1.2-2.8c0.9-0.5,1.8-0.9,2.7-1.2
					c3.2-1,6.3-2,9.5-2.9c0.9-0.3,1.2-0.7,1.2-1.6c0-0.5,0-1,0-1.5c0.1-0.7,0.5-1.2,1.2-1.2c0.7,0,1,0.5,1.1,1.2c0,0.1,0,0.1,0,0.2
					c0,1.8,0.1,1.8,1.8,1.3c5-1.6,10-3.2,15-4.8c0.2-0.1,0.5-0.2,0.7-0.2c0.4,0.1,1.1,0.3,1.2,0.5c0.1,0.5-0.1,1.1-0.4,1.5
					c-0.2,0.3-0.8,0.4-1.2,0.6c-5.3,1.7-10.5,3.3-15.8,5c-1.5,0.5-1.5,0.4-1.5,2c-0.1,4.3-0.1,8.6-0.2,12.9
					c-0.1,5.4-0.3,10.9-0.4,16.3c0,0.2,0,0.5,0,0.7c-0.1,0.7-0.5,1.1-1.2,1.1c-0.7,0-1.1-0.5-1.1-1.2c0-0.6,0.1-1.3,0.1-1.9
					c0.1-5.6,0.1-11.2,0.3-16.9c0.1-3.6,0.2-7.2,0.3-10.9c0-0.8-0.2-1-1-0.8c-3.4,1.1-6.7,2.1-10.1,3.2c-0.4,0.1-0.6,0.6-0.9,0.9
					c0.4,0.2,0.9,0.6,1.3,0.7c0.6,0,1.2-0.2,1.7-0.3c0.6-0.1,1.2,0,1.3,0.7c0.2,0.7,0,1.2-0.7,1.4
					C222.5,283.1,221.7,283.2,220.9,283.3z"/>
				<path d="M73.4,305.8c-0.5,0.1-1,0.2-1.4,0.3c-3,0.9-5.9,1.8-8.8,2.8c-0.4,0.1-1.1,0.7-1.1,1c0.1,0.7,0.9,0.8,1.5,0.7
					c0.5-0.1,1-0.4,1.5-0.4c0.4,0,1.1,0.4,1.2,0.7c0.1,0.4-0.1,1.1-0.5,1.3c-1.1,0.8-4.5,0.6-5.5-0.3c-1.2-1-1.3-3-0.1-4
					c0.7-0.6,1.6-1,2.4-1.3c3.2-1.1,6.5-2.1,9.7-3c1-0.3,1.4-0.8,1.3-1.8c-0.1-0.5,0-0.9,0-1.4c0.1-0.7,0.5-1.1,1.2-1
					c0.6,0,0.9,0.5,1,1.1c0.2,2,0.2,2,2.2,1.4c5.1-1.6,10.2-3.2,15.3-4.9c0.7-0.2,1.4-0.5,1.8,0.4c0.3,0.7,0,1.5-1.1,1.8
					c-5.1,1.6-10.1,3.3-15.2,4.9c-0.9,0.3-2.1,0.3-2.7,1c-0.5,0.6-0.3,1.8-0.4,2.7c-0.1,1.4-0.1,2.8-0.2,4.2
					c-0.1,6.4-0.3,12.8-0.4,19.2c0,1.5-0.1,3.1-0.2,4.6c0,0.8-0.3,1.4-1.2,1.4c-1,0-1.1-0.7-1.1-1.5c0.1-5.5,0.3-11,0.4-16.5
					c0.1-4,0.2-8,0.2-12.1C73.4,306.7,73.4,306.3,73.4,305.8z"/>
				<path d="M161.6,311.1c-0.2-3.5-1.2-6.4-2.7-9.1c-1.2-2.1-2.6-4-3.8-6.1c-2-3.5-2.5-7.2-1.4-11.1c1.3-4.2,6-6.1,9.9-4.1
					c1.3,0.7,2.2,1.7,2.6,3.1c0.4,1.3,0.6,2.7,0.7,4c0.1,0.6-0.1,1.2-0.9,1.3c-0.8,0-1.2-0.4-1.3-1.1c-0.1-0.8-0.2-1.5-0.3-2.3
					c-0.4-1.7-1.3-3-3.1-3.3c-1.9-0.3-3.6,0.2-4.8,1.8c-1.1,1.6-1.3,3.4-1.1,5.3c0.2,2.5,1.1,4.8,2.6,6.9c0.7,1,1.4,2,2.1,3
					c2.5,3.7,3.9,7.8,3.8,12.3c0,5.1-5.5,7.8-9.3,6.7c-2.8-0.8-4.2-3.1-4.6-5.9c-0.2-1.1,0-2.2,0.2-3.3c0.2-0.9,0.9-1.3,1.6-1.1
					c0.9,0.3,0.7,1,0.7,1.7c-0.1,1-0.2,2.1,0,3c0.4,2,2,3.3,3.8,3.5c1.9,0.2,4.2-1.1,4.9-2.9C161.4,312.6,161.5,311.7,161.6,311.1z"
					/>
				<path d="M170.4,307.5c-0.3,0.5-0.6,0.9-1,1.3c-0.5,0.6-1.1,0.8-1.7,0.3c-0.7-0.5-0.5-1.1-0.1-1.7c1.6-2.4,2.8-4.9,3.4-7.7
					c0.1-0.6,0.2-1.2,0.2-1.8c0-5,0-10,0-15c0-0.3-0.1-0.7,0-1c0.2-0.4,0.6-1,1-1c0.4,0,0.9,0.5,1.2,0.9c0.2,0.3,0.1,0.8,0.1,1.2
					c0.1,4.6,0.1,9.2,0.2,13.8c0,0.3,0.1,0.5,0.1,0.9c0.3-0.2,0.5-0.3,0.8-0.4c0.1,0,0.1-0.1,0.2-0.1c1.4-0.9,2.9-1.3,4.5-0.6
					c1.5,0.7,1.6,2.3,1.7,3.8c0.1,1.8,0,3.7,0,5.5c0,1,0,2,0.2,3c0.1,0.5,0.4,1.1,0.8,1.5c0.5,0.5,0.7,1,0.3,1.7
					c-0.4,0.6-1,0.6-1.6,0.3c-1-0.5-1.5-1.4-1.6-2.4c-0.2-2.7-0.3-5.4-0.4-8.1c0-0.7-0.2-1.5-0.4-2.2c-0.3-1-1.1-1.3-2-0.7
					c-0.6,0.4-1.1,0.9-1.4,1.5c-1.1,1.7-1.6,3.6-1.7,5.7c-0.1,1.7-0.1,3.4-0.2,5.1c-0.1,1.1-0.5,1.7-1.2,1.6c-0.8,0-1.2-0.8-1.1-1.9
					c0.1-1.1,0.1-2.2,0.2-3.4C170.6,307.5,170.5,307.5,170.4,307.5z"/>
				<path class="st1" d="M209.8,37.3c-0.2,0.6-0.4,0.9-0.6,1.3c-2.3,4.1-3.9,8.5-4.4,13.2c-0.3,2.3-0.2,4.7-0.2,7.1
					c0,1.6,0.1,3.3,0.2,4.9c0.3,6.7,0.7,13.3,0.8,20c0.1,7.1-2.5,13.3-8.1,17.9c-3.2,2.7-7,4-11.1,4.5c-1.7,0.2-3.5,0.1-5.3,0.1
					c-0.7,0-1-0.4-1-1.1c-0.2-5.8-0.7-11.6-0.5-17.4c0.2-10.5,1.9-20.8,5.6-30.8c2.3-6.3,5.9-11.7,11.5-15.6c3.5-2.5,7.4-3.7,11.7-4
					C208.7,37.2,209.1,37.3,209.8,37.3z"/>
				<path class="st1" d="M182.2,138.5c-0.5-0.9-1-1.9-1.6-2.8c-0.5-0.8-1.3-1-1.9-0.3c-0.2,0.2-0.3,0.8-0.2,1
					c2.4,3.9,3.7,8.2,5.2,12.5c2.4,7.1,5.1,14,9.3,20.2c0.6,0.8,1.2,1.6,1.6,2.5c0.4,0.9,0.7,1.9,0.8,2.8c0,1.2-0.5,2.3-1.8,2.8
					c-1.3,0.5-2.6,0.7-3.8-0.5c-3-3.2-5.9-6.3-8.9-9.4c-6.1-6.5-10.4-14.1-13.7-22.3c-1.8-4.6-3.7-9.2-5.4-13.9
					c-1.3-3.8-1.9-7.9-1.7-12c0.2-5,2.4-8.9,6.7-11.4c0.7-0.4,1.9-0.6,2.7-0.4c4.1,0.8,8,2.3,11.7,4.4c0.7,0.4,1,0.9,1,1.8
					c0.1,7.1,0.3,14.3,0.4,21.4c0,1.2-0.1,2.3-0.2,3.5C182.4,138.5,182.3,138.5,182.2,138.5z"/>
				<path class="st1" d="M177.7,105.5c-0.4-0.1-0.7-0.1-1-0.1c-8.6-2.1-14.9-9.7-15.8-18.4c-0.5-5.3-0.1-10.5,0.2-15.8
					c0.3-5.1,0.6-10.3,0.6-15.4c0.1-5.7-1.9-10.9-4.5-15.8c-0.2-0.4-0.4-0.8-0.7-1.5c1.6,0.1,3,0.2,4.4,0.4c6.5,1,11.9,4.2,16.4,8.9
					c2.1,2.1,3.9,4.4,5.4,7c0.4,0.6,0.4,1.2,0.2,1.9c-1.9,5.4-3.1,11-4.2,16.6c-1.4,7.3-1.6,14.6-1.5,22c0,2.9,0.3,5.7,0.5,8.6
					C177.7,104.3,177.7,104.9,177.7,105.5z"/>
				<path class="st1" d="M185.9,177.6c-0.1,0.8-0.1,1.5-0.3,2.3c-0.3,1.5-1.4,2.4-2.9,1.9c-1.1-0.3-2.2-0.9-3-1.6
					c-3.2-3-6.3-6-9.2-9.2c-2.5-2.8-4.9-5.6-6.5-9c-2.1-4.3-4.4-8.5-6.6-12.8c-3.2-6.2-5-12.9-6-19.7c-0.4-2.5,0.4-4.6,2.1-6.4
					c0.8-0.8,1.8-1.6,2.8-2.3c1.1-0.8,1.6-0.5,1.7,0.8c0.3,4.6,1.2,9.2,2.9,13.5c2.5,5.9,4.8,11.9,7.5,17.7
					c2.4,5.3,5.6,10.2,9.4,14.5c2.3,2.6,4.7,5.1,7.1,7.7C185.6,175.7,186.1,176.5,185.9,177.6z"/>
				<path class="st1" d="M185,114.3c1.4,1.2,2.8,2.4,4.2,3.5c1.6,1.3,2.6,2.8,3.3,4.8c1.3,4,3.3,7.6,6,10.8c0.6,0.7,0.7,1.4,0.6,2.2
					c-0.7,6.7-1.5,13.5-2.2,20.2c-0.4,4.1-0.8,8.2-1.2,12.3c0,0.2-0.1,0.4-0.2,0.8c-0.4-0.6-0.7-1-1-1.4c-3.8-5.8-6.4-12.2-8.6-18.7
					c-0.9-2.7-1.5-5.3-1.3-8.2c0.4-5.7,0.3-11.4,0.3-17.2c0-2.7-0.2-5.3-0.3-8c0-0.3,0-0.6,0.1-0.9
					C184.8,114.4,184.9,114.3,185,114.3z"/>
				<path class="st1" d="M176.1,186.1c-0.7-0.2-1.5-0.3-2.1-0.7c-2.1-1.3-4.2-2.7-6.3-4.1c-3-1.9-5-4.6-6.8-7.6
					c-0.6-1-1.2-2-1.8-2.9c-4.4-6-7.8-12.7-11.6-19.1c-0.5-0.9-1-1.7-1.5-2.6c-1.8-2.8-2.8-5.8-2.8-9.1c-0.1-3.6,1.8-6.2,5.1-7.2
					c1.3-0.3,1.5-0.2,1.7,1.1c1.3,7.7,4.6,14.6,8.2,21.4c0.8,1.5,1.7,2.9,2.3,4.4c1.9,4.4,4.6,8.1,7.7,11.7c1.8,2.1,3.8,4,5.8,5.9
					c1.6,1.6,3.2,3.2,4.8,4.8c0.2,0.2,0.3,0.5,0.3,0.8C179,184.8,177.7,186,176.1,186.1z"/>
				<path class="st1" d="M136.2,149.6c0-2.4,1.3-3.8,3-4.8c1.2-0.8,2.1-0.2,2.7,1c1.3,2.6,2.6,5.1,4,7.6c2.5,4.3,5,8.6,7.6,12.9
					c0.9,1.5,1.8,2.8,2.8,4.3c1.7,2.6,3.4,5.3,5.3,7.9c0.8,1.2,1.8,2.2,2.9,3.1c2,1.5,4.1,2.9,6.2,4.2c1.2,0.8,1.3,1.5,0.3,2.5
					c-1.1,1-2.3,1.3-3.6,0.7c-1.9-0.9-3.9-1.8-5.5-3.2c-2.6-2.1-5.2-4.4-7.4-6.9c-3.1-3.6-5.7-7.5-8.5-11.3
					c-2.3-3.1-4.5-6.2-6.8-9.4C137,155.6,136.4,152.5,136.2,149.6z"/>
				<path class="st1" d="M152,189.6c4.6,0.5,15.2,10.8,15.6,15.2c-0.3-0.3-0.5-0.7-0.8-1c-1.5-1.5-3.1-2.9-4.7-4.3
					c-0.2-0.2-0.5-0.5-0.7-0.5c-0.5,0-1.2,0-1.4,0.3c-0.2,0.3,0,1,0.2,1.4c0.1,0.3,0.5,0.4,0.8,0.6c3.3,2.6,6.1,5.7,8.4,9.2
					c0.8,1.2,1.1,2.7,1.6,4.2c0.1,0.4,0,0.8,0,1.4c-0.6-0.1-1-0.2-1.4-0.3c-4.3-1.5-7.6-4.2-10.2-7.8c-3.8-5.2-6.2-10.9-7.2-17.2
					C152,190.3,152,190,152,189.6z"/>
				<path class="st1" d="M184.2,52.9c-0.4-0.6-0.8-1.1-1.1-1.6c-1.1-1.5-2.3-2.9-3.4-4.4c-0.3-0.4-0.6-0.9-0.5-1.3
					c0.7-3.8,2.1-7.3,4.3-10.4c0.1-0.2,0.3-0.3,0.6-0.6c0.3,0.3,0.6,0.5,0.8,0.7c2.1,2.6,3.5,5.5,4.3,8.7c0.1,0.5,0.1,1.1-0.2,1.5
					c-1.4,2.4-2.9,4.7-4.4,7C184.6,52.5,184.5,52.6,184.2,52.9z"/>
				<path class="st1" d="M188.1,178.5c0.8,0.5,1.4,1,2.3,1.6c-6.8,5-12.4,10.9-15.3,18.9c-0.1-0.1-0.3-0.1-0.4-0.2
					c0.1-0.8,0.1-1.7,0.2-2.5c0.3-2.4,0.6-4.9,0.9-7.3c0.1-0.6,0.3-0.9,1-1c2.2-0.2,3.6-1.4,4.2-3.6c0.1-0.3,0.6-0.7,0.9-0.6
					c4.1,0.3,5.5-0.8,6-4.8C188,179,188,178.8,188.1,178.5z"/>
				<path class="st1" d="M191.3,107.4c-0.2,2.9-0.3,5.8-0.5,8.7c0,0-0.1,0-0.2,0c-1.9-1.6-4-3-5.8-4.7c-0.5-0.5-0.3-1.6-0.4-2.5
					c0-0.1,0.3-0.3,0.4-0.3C187,108.2,189.2,107.8,191.3,107.4z"/>
				<path class="st1" d="M180.3,108.7c1.3-0.5,1.7-0.3,1.7,0.8C181.3,109.2,180.8,109,180.3,108.7z"/>
				<path class="st1" d="M277.7,287.1c-1.4-1.9-1.4-5.3-0.2-6.9c0.5-0.6,1-1.2,1.9-0.9c0.8,0.3,1,1.1,0.9,1.9
					C280.1,283.5,279,285.3,277.7,287.1z"/>
				<path class="st1" d="M209.3,298.3c-0.5,1.9-0.8,3.8-1.5,5.6c-0.8,2.1-2.7,2.6-4.5,1.4c-2.5-1.7-2.9-3.5-2.1-6.4
					c0.6-2,2-3.6,4-4.5c1.9-0.9,3.2-0.3,3.7,1.8c0.1,0.6,0.2,1.3,0.3,2C209.2,298.2,209.3,298.3,209.3,298.3z"/>
				<path class="st1" d="M188.8,298c1.1,1.9,2.7,2.4,4.6,2.4c0.2,0,0.6,0.4,0.6,0.6c-0.2,2.1-0.5,4.1-1.9,5.8
					c-0.7,0.9-1.7,1.4-2.8,1.1c-1.1-0.3-1.6-1.2-1.8-2.2c-0.5-2.4-0.3-4.7,0.8-6.9C188.3,298.6,188.5,298.4,188.8,298z"/>
				<path class="st1" d="M193.6,298.2c-0.8-0.4-1.5-0.6-2.1-1c-0.2-0.1-0.2-0.4-0.3-0.7c0.3-0.1,0.6-0.4,0.9-0.3
					C192.9,296.4,193.4,297,193.6,298.2z"/>
				<path class="st1" d="M127.2,313.3c-0.3-1.9,0.2-3.6,1.4-5.1c0.7-0.8,1.7-1.6,2.7-2.1c1-0.5,1.9,0,2.4,1c0.3,0.7,0.5,1.5,0.6,2.3
					c0.3,2.6,0,5.2-1.1,7.6c-1,2.2-3.8,2.6-5.4,0.7c-0.2-0.2-0.3-0.5-0.3-0.8C127.3,315.8,127.2,314.6,127.2,313.3z"/>
				<path class="st1" d="M249.2,287.7c-0.3,2.2-0.8,4.8-1.9,7.3c-0.2,0.4-0.4,0.9-0.7,1.1c-0.5,0.3-1.1,0.7-1.6,0.6
					c-0.4-0.1-1-0.7-1.1-1.2c-0.5-2.8-0.2-5.5,1.6-7.9c0.7-0.9,1.4-1.6,2.6-1.5C249.1,286.1,249.3,286.2,249.2,287.7z"/>
			</g>
		</g>
	</g>
</g>
</svg>
